HIERARCHY
ROOT Hips
{
  OFFSET 0.000 72.574 0.000
  CHANNELS 6 Xposition Yposition Zposition Zrotation Xrotation Yrotation
  JOINT LeftUpLeg
  {
    OFFSET 7.575 1.416 2.812
    CHANNELS 6 Xposition Yposition Zposition Zrotation Xrotation Yrotation
    JOINT LeftLeg
    {
      OFFSET 0.000 -35.049 0.000
      CHANNELS 6 Xposition Yposition Zposition Zrotation Xrotation Yrotation
      JOINT LeftFoot
      {
        OFFSET 0.000 -38.941 0.000
        CHANNELS 6 Xposition Yposition Zposition Zrotation Xrotation Yrotation
        End Site
        {
          OFFSET 0.000 0.000 10.437
        }
      }
    }
  }
  JOINT RightUpLeg
  {
    OFFSET -7.575 1.416 2.812
    CHANNELS 6 Xposition Yposition Zposition Zrotation Xrotation Yrotation
    JOINT RightLeg
    {
      OFFSET 0.000 -35.049 0.000
      CHANNELS 6 Xposition Yposition Zposition Zrotation Xrotation Yrotation
      JOINT RightFoot
      {
        OFFSET 0.000 -38.941 0.000
        CHANNELS 6 Xposition Yposition Zposition Zrotation Xrotation Yrotation
        End Site
        {
          OFFSET 0.000 0.000 10.437
        }
      }
    }
  }
  JOINT Spine
  {
    OFFSET 0.000 29.049 0.000
    CHANNELS 6 Xposition Yposition Zposition Zrotation Xrotation Yrotation
    JOINT Spine1
    {
      OFFSET 0.000 21.495 0.000
      CHANNELS 6 Xposition Yposition Zposition Zrotation Xrotation Yrotation
      JOINT LeftShoulder
      {
        OFFSET 1.626 -0.222 0.025
        CHANNELS 6 Xposition Yposition Zposition Zrotation Xrotation Yrotation
        JOINT LeftArm
        {
          OFFSET 15.753 0.000 0.000
          CHANNELS 6 Xposition Yposition Zposition Zrotation Xrotation Yrotation
          JOINT LeftForeArm
          {
            OFFSET 26.023 0.000 0.000
            CHANNELS 6 Xposition Yposition Zposition Zrotation Xrotation Yrotation
            JOINT LeftHand
            {
              OFFSET 24.381 0.000 0.000
              CHANNELS 6 Xposition Yposition Zposition Zrotation Xrotation Yrotation
              JOINT LeftHandThumb1
              {
                OFFSET 4.877 -1.044 3.608
                CHANNELS 6 Xposition Yposition Zposition Zrotation Xrotation Yrotation
                JOINT LeftHandThumb2
                {
                  OFFSET 2.665 0.000 0.000
                  CHANNELS 6 Xposition Yposition Zposition Zrotation Xrotation Yrotation
                  JOINT LeftHandThumb3
                  {
                    OFFSET 2.543 -0.000 -0.000
                    CHANNELS 6 Xposition Yposition Zposition Zrotation Xrotation Yrotation
                    End Site
                    {
                      OFFSET 2.667 0.000 -0.000
                    }
                  }
                }
              }
              JOINT LeftHandIndex1
              {
                OFFSET 9.232 -0.301 2.144
                CHANNELS 6 Xposition Yposition Zposition Zrotation Xrotation Yrotation
                JOINT LeftHandIndex2
                {
                  OFFSET 4.225 0.000 0.000
                  CHANNELS 6 Xposition Yposition Zposition Zrotation Xrotation Yrotation
                  JOINT LeftHandIndex3
                  {
                    OFFSET 2.654 0.000 0.000
                    CHANNELS 6 Xposition Yposition Zposition Zrotation Xrotation Yrotation
                    End Site
                    {
                      OFFSET 1.958 0.000 0.000
                    }
                  }
                }
              }
              JOINT LeftHandMiddle1
              {
                OFFSET 8.920 0.000 -0.000
                CHANNELS 6 Xposition Yposition Zposition Zrotation Xrotation Yrotation
                JOINT LeftHandMiddle2
                {
                  OFFSET 4.863 -0.000 -0.000
                  CHANNELS 6 Xposition Yposition Zposition Zrotation Xrotation Yrotation
                  JOINT LeftHandMiddle3
                  {
                    OFFSET 2.765 0.000 0.000
                    CHANNELS 6 Xposition Yposition Zposition Zrotation Xrotation Yrotation
                    End Site
                    {
                      OFFSET 2.006 0.000 0.000
                    }
                  }
                }
              }
              JOINT LeftHandRing1
              {
                OFFSET 8.689 -0.126 -2.087
                CHANNELS 6 Xposition Yposition Zposition Zrotation Xrotation Yrotation
                JOINT LeftHandRing2
                {
                  OFFSET 4.538 0.000 0.000
                  CHANNELS 6 Xposition Yposition Zposition Zrotation Xrotation Yrotation
                  JOINT LeftHandRing3
                  {
                    OFFSET 2.305 0.000 0.000
                    CHANNELS 6 Xposition Yposition Zposition Zrotation Xrotation Yrotation
                    End Site
                    {
                      OFFSET 1.923 -0.000 0.000
                    }
                  }
                }
              }
              JOINT LeftHandPinky1
              {
                OFFSET 8.391 -0.817 -3.758
                CHANNELS 6 Xposition Yposition Zposition Zrotation Xrotation Yrotation
                JOINT LeftHandPinky2
                {
                  OFFSET 3.044 -0.000 -0.000
                  CHANNELS 6 Xposition Yposition Zposition Zrotation Xrotation Yrotation
                  JOINT LeftHandPinky3
                  {
                    OFFSET 1.975 0.000 0.000
                    CHANNELS 6 Xposition Yposition Zposition Zrotation Xrotation Yrotation
                    End Site
                    {
                      OFFSET 1.667 0.000 -0.000
                    }
                  }
                }
              }
            }
          }
        }
      }
      JOINT RightShoulder
      {
        OFFSET -1.626 -0.222 0.025
        CHANNELS 6 Xposition Yposition Zposition Zrotation Xrotation Yrotation
        JOINT RightArm
        {
          OFFSET -15.753 0.000 0.000
          CHANNELS 6 Xposition Yposition Zposition Zrotation Xrotation Yrotation
          JOINT RightForeArm
          {
            OFFSET -26.023 0.000 0.000
            CHANNELS 6 Xposition Yposition Zposition Zrotation Xrotation Yrotation
            JOINT RightHand
            {
              OFFSET -24.381 0.000 0.000
              CHANNELS 6 Xposition Yposition Zposition Zrotation Xrotation Yrotation
              JOINT RightHandThumb1
              {
                OFFSET -4.877 -1.044 3.608
                CHANNELS 6 Xposition Yposition Zposition Zrotation Xrotation Yrotation
                JOINT RightHandThumb2
                {
                  OFFSET -2.665 0.000 0.000
                  CHANNELS 6 Xposition Yposition Zposition Zrotation Xrotation Yrotation
                  JOINT RightHandThumb3
                  {
                    OFFSET -2.543 -0.000 0.000
                    CHANNELS 6 Xposition Yposition Zposition Zrotation Xrotation Yrotation
                    End Site
                    {
                      OFFSET -2.667 0.000 -0.000
                    }
                  }
                }
              }
              JOINT RightHandIndex1
              {
                OFFSET -9.232 -0.301 2.144
                CHANNELS 6 Xposition Yposition Zposition Zrotation Xrotation Yrotation
                JOINT RightHandIndex2
                {
                  OFFSET -4.225 -0.000 -0.000
                  CHANNELS 6 Xposition Yposition Zposition Zrotation Xrotation Yrotation
                  JOINT RightHandIndex3
                  {
                    OFFSET -2.654 0.000 0.000
                    CHANNELS 6 Xposition Yposition Zposition Zrotation Xrotation Yrotation
                    End Site
                    {
                      OFFSET -1.958 -0.000 -0.000
                    }
                  }
                }
              }
              JOINT RightHandMiddle1
              {
                OFFSET -8.920 0.000 0.000
                CHANNELS 6 Xposition Yposition Zposition Zrotation Xrotation Yrotation
                JOINT RightHandMiddle2
                {
                  OFFSET -4.863 -0.000 -0.000
                  CHANNELS 6 Xposition Yposition Zposition Zrotation Xrotation Yrotation
                  JOINT RightHandMiddle3
                  {
                    OFFSET -2.765 0.000 0.000
                    CHANNELS 6 Xposition Yposition Zposition Zrotation Xrotation Yrotation
                    End Site
                    {
                      OFFSET -2.006 0.000 -0.000
                    }
                  }
                }
              }
              JOINT RightHandRing1
              {
                OFFSET -8.689 -0.126 -2.087
                CHANNELS 6 Xposition Yposition Zposition Zrotation Xrotation Yrotation
                JOINT RightHandRing2
                {
                  OFFSET -4.538 -0.000 0.000
                  CHANNELS 6 Xposition Yposition Zposition Zrotation Xrotation Yrotation
                  JOINT RightHandRing3
                  {
                    OFFSET -2.305 0.000 0.000
                    CHANNELS 6 Xposition Yposition Zposition Zrotation Xrotation Yrotation
                    End Site
                    {
                      OFFSET -1.923 0.000 -0.000
                    }
                  }
                }
              }
              JOINT RightHandPinky1
              {
                OFFSET -8.391 -0.817 -3.758
                CHANNELS 6 Xposition Yposition Zposition Zrotation Xrotation Yrotation
                JOINT RightHandPinky2
                {
                  OFFSET -3.044 0.000 -0.000
                  CHANNELS 6 Xposition Yposition Zposition Zrotation Xrotation Yrotation
                  JOINT RightHandPinky3
                  {
                    OFFSET -1.975 -0.000 -0.000
                    CHANNELS 6 Xposition Yposition Zposition Zrotation Xrotation Yrotation
                    End Site
                    {
                      OFFSET -1.667 0.000 0.000
                    }
                  }
                }
              }
            }
          }
        }
      }
      JOINT Neck
      {
        OFFSET 0.000 0.714 0.000
        CHANNELS 6 Xposition Yposition Zposition Zrotation Xrotation Yrotation
        JOINT Head
        {
          OFFSET 0.000 6.444 0.000
          CHANNELS 6 Xposition Yposition Zposition Zrotation Xrotation Yrotation
          End Site
          {
            OFFSET 0.000 15.214 0.000
          }
        }
      }
    }
  }
}
MOTION
Frames:	4
Frame Time:	0.033333
-32.10492 9.15699 -240.32152 -90.38321 4.20896 -35.46467 7.39392 1.49972 3.36585 16.02220 -31.68322 -53.96261 -0.01712 -33.40583 0.06592 -123.82761 -11.45771 -2.59720 -0.00076 -29.69483 -0.04857 -12.02825 -53.97952 -14.75991 -5.91515 -0.19698 3.36229 21.56646 -28.57801 -53.39796 0.00715 -33.36786 -0.00558 -64.39118 12.08206 143.92296 -0.00209 -40.62273 -0.00470 2.77862 -10.12903 15.42662 0.00725 29.18103 0.00112 -0.58030 2.05676 -9.90657 -0.00630 21.53010 0.00177 -1.01681 2.24600 -9.97807 0.84636 -0.13726 0.21241 -9.09313 2.27816 -13.95069 8.03789 -0.00018 0.00081 -46.95587 0.70006 -1.10385 24.79728 0.00124 0.00603 -2.53642 -1.13343 -12.15378 23.48428 0.00143 -0.00457 0.23772 -3.23732 -4.43235 4.87700 -1.04402 3.60799 -38.84870 -18.17666 4.02960 2.66498 0.00002 0.00002 -0.00000 0.00000 5.00000 2.54301 -0.00004 -0.00001 0.00001 0.00000 60.00000 9.23200 -0.30100 2.14399 2.00000 -0.00000 0.00000 4.22501 0.00000 0.00000 1.99999 0.00000 0.00000 2.65400 0.00001 0.00000 2.00000 -0.00000 -0.00000 8.92000 0.00000 -0.00001 -79.99999 -0.00000 0.00000 4.86301 -0.00001 -0.00001 -90.00000 0.00000 0.00000 2.76499 0.00000 0.00000 -70.00000 -0.00000 0.00000 8.68900 -0.12599 -2.08701 -79.99999 -0.00000 0.00000 4.53802 0.00000 0.00000 -90.00000 0.00000 0.00000 2.30501 0.00001 0.00000 -70.00000 -0.00000 0.00000 8.39100 -0.81698 -3.75800 2.00000 -0.00000 0.00000 3.04399 -0.00004 -0.00001 1.99999 0.00000 0.00000 1.97501 0.00001 0.00001 2.00000 -0.00000 -0.00000 -1.77802 -0.33521 0.20960 10.48621 1.27791 6.80940 -16.33381 0.00333 0.00028 68.75461 21.15148 17.97318 -24.84515 -0.00023 0.00104 19.76834 4.51657 23.43351 -24.98872 -0.00151 -0.00329 22.59070 -0.68370 -8.70487 -4.87701 -1.04400 3.60801 40.90625 11.75042 -3.91528 -2.66500 0.00000 0.00000 0.00000 0.00000 -5.00000 -2.54300 -0.00001 0.00002 0.00001 0.00000 -60.00000 -9.23200 -0.30100 2.14398 -2.00001 -0.00000 0.00000 -4.22500 -0.00001 -0.00002 -2.00000 -0.00000 -0.00000 -2.65401 0.00000 0.00000 -2.00000 -0.00001 0.00001 -8.92001 0.00000 0.00000 79.99999 -0.00000 0.00001 -4.86300 -0.00001 -0.00002 90.00000 -0.00000 0.00001 -2.76499 0.00001 0.00002 70.00000 -0.00001 0.00001 -8.68900 -0.12600 -2.08702 79.99999 -0.00000 0.00001 -4.53800 -0.00001 0.00002 90.00000 -0.00000 0.00001 -2.30499 0.00001 0.00002 70.00000 -0.00001 0.00001 -8.39100 -0.81699 -3.75803 -2.00001 -0.00000 0.00000 -3.04399 0.00001 -0.00002 -2.00000 -0.00000 -0.00000 -1.97501 -0.00001 -0.00002 -2.00000 -0.00001 0.00001 0.00025 0.70787 -0.00018 0.00001 -0.00003 -0.00000 -0.00642 6.37429 0.00510 -13.20260 -11.89727 -177.89694 
-32.10492 9.04050 -240.24693 -90.20589 4.08966 -35.59214 7.37549 1.47618 3.36585 16.25851 -31.43395 -53.73448 -0.01712 -33.40844 0.07567 -123.91597 -11.32603 -2.88750 -0.00076 -29.69483 -0.05409 -11.57709 -54.10328 -14.19282 -5.87046 -0.16546 3.36229 21.06874 -28.61068 -53.52744 0.00715 -33.36786 -0.00558 -64.31756 12.14786 144.29614 -0.00209 -40.62273 -0.00470 2.75162 -10.07960 15.35419 0.00725 29.18103 0.00112 -0.72075 2.05708 -9.85569 -0.00630 21.53010 0.00177 -1.07096 2.22767 -9.92680 0.84636 -0.13726 0.21241 -9.13229 2.29240 -13.97432 8.03789 -0.00018 0.00081 -46.71564 0.84622 -1.12443 24.80541 0.00124 0.00603 -3.01219 -1.00529 -12.18539 23.49827 0.00143 -0.00457 0.80307 -4.07836 -3.60703 4.87700 -1.04402 3.60799 -38.84870 -18.17666 4.02960 2.66498 0.00002 0.00002 -0.00000 0.00000 5.00000 2.54301 -0.00004 -0.00001 0.00001 0.00000 60.00000 9.23200 -0.30100 2.14399 2.00000 -0.00000 0.00000 4.22501 0.00000 0.00000 1.99999 0.00000 0.00000 2.65400 0.00001 0.00000 2.00000 -0.00000 -0.00000 8.92000 0.00000 -0.00001 -79.99999 -0.00000 0.00000 4.86301 -0.00001 -0.00001 -90.00000 0.00000 0.00000 2.76499 0.00000 0.00000 -70.00000 -0.00000 0.00000 8.68900 -0.12599 -2.08701 -79.99999 -0.00000 0.00000 4.53802 0.00000 0.00000 -90.00000 0.00000 0.00000 2.30501 0.00001 0.00000 -70.00000 -0.00000 0.00000 8.39100 -0.81698 -3.75800 2.00000 -0.00000 0.00000 3.04399 -0.00004 -0.00001 1.99999 0.00000 0.00000 1.97501 0.00001 0.00001 2.00000 -0.00000 -0.00000 -1.77802 -0.33521 0.20960 10.50769 1.27788 6.82140 -16.33381 0.00333 0.00028 68.77528 21.14881 17.79149 -24.68089 -0.00023 0.00104 19.59146 4.40939 23.57912 -25.21181 -0.00151 -0.00329 22.95050 -0.37758 -8.67187 -4.87701 -1.04400 3.60801 40.90625 11.75042 -3.91528 -2.66500 0.00000 0.00000 0.00000 0.00000 -5.00000 -2.54300 -0.00001 0.00002 0.00001 0.00000 -60.00000 -9.23200 -0.30100 2.14398 -2.00001 -0.00000 0.00000 -4.22500 -0.00001 -0.00002 -2.00000 -0.00000 -0.00000 -2.65401 0.00000 0.00000 -2.00000 -0.00001 0.00001 -8.92001 0.00000 0.00000 79.99999 -0.00000 0.00001 -4.86300 -0.00001 -0.00002 90.00000 -0.00000 0.00001 -2.76499 0.00001 0.00002 70.00000 -0.00001 0.00001 -8.68900 -0.12600 -2.08702 79.99999 -0.00000 0.00001 -4.53800 -0.00001 0.00002 90.00000 -0.00000 0.00001 -2.30499 0.00001 0.00002 70.00000 -0.00001 0.00001 -8.39100 -0.81699 -3.75803 -2.00001 -0.00000 0.00000 -3.04399 0.00001 -0.00002 -2.00000 -0.00000 -0.00000 -1.97501 -0.00001 -0.00002 -2.00000 -0.00001 0.00001 0.00025 0.70787 -0.00018 0.00001 -0.00003 -0.00000 -0.00642 6.37429 0.00510 -13.21594 -11.86081 -176.37415 
-32.10468 9.00085 -240.21165 -90.15697 4.03610 -35.62666 7.37471 1.47015 3.36585 15.87096 -31.47927 -53.95496 -0.01051 -33.41755 0.04674 -123.76780 -11.53913 -2.62511 -0.00076 -29.70284 -0.03414 -11.77013 -54.07479 -14.43109 -5.86820 -0.15688 3.36229 20.91001 -28.59358 -53.64535 0.00715 -33.36786 -0.00558 -64.29045 12.11147 144.48151 -0.00209 -40.62273 -0.00470 2.73245 -10.05650 15.28513 0.00725 29.18356 0.00112 -0.74831 2.06717 -9.84281 -0.00630 21.52759 0.00177 -1.10048 2.21873 -9.91286 0.84636 -0.13726 0.21241 -9.16149 2.30375 -13.99649 8.03789 -0.00018 0.00081 -46.51236 1.07523 -1.14678 24.82911 0.00124 0.00603 -3.71616 -0.99997 -11.99207 23.49923 -0.00393 -0.00457 2.16266 -5.67442 -3.86955 4.87700 -1.04402 3.60799 -38.84870 -18.17666 4.02960 2.66498 0.00002 0.00002 -0.00000 0.00000 5.00000 2.54301 -0.00004 -0.00001 0.00001 0.00000 60.00000 9.23200 -0.30100 2.14399 2.00000 -0.00000 0.00000 4.22501 0.00000 0.00000 1.99999 0.00000 0.00000 2.65400 0.00001 0.00000 2.00000 -0.00000 -0.00000 8.92000 0.00000 -0.00001 -79.99999 -0.00000 0.00000 4.86301 -0.00001 -0.00001 -90.00000 0.00000 0.00000 2.76499 0.00000 0.00000 -70.00000 -0.00000 0.00000 8.68900 -0.12599 -2.08701 -79.99999 -0.00000 0.00000 4.53802 0.00000 0.00000 -90.00000 0.00000 0.00000 2.30501 0.00001 0.00000 -70.00000 -0.00000 0.00000 8.39100 -0.81698 -3.75800 2.00000 -0.00000 0.00000 3.04399 -0.00004 -0.00001 1.99999 0.00000 0.00000 1.97501 0.00001 0.00001 2.00000 -0.00000 -0.00000 -1.77802 -0.33521 0.20960 10.54319 1.27785 6.83303 -16.33381 0.00333 0.00028 68.66985 21.19233 17.67837 -24.55942 -0.00023 0.00104 19.53221 4.35336 23.64268 -25.51996 -0.00151 -0.00329 23.29278 0.25455 -8.46558 -4.87701 -1.04400 3.60801 40.90625 11.75042 -3.91528 -2.66500 0.00000 0.00000 0.00000 0.00000 -5.00000 -2.54300 -0.00001 0.00002 0.00001 0.00000 -60.00000 -9.23200 -0.30100 2.14398 -2.00001 -0.00000 0.00000 -4.22500 -0.00001 -0.00002 -2.00000 -0.00000 -0.00000 -2.65401 0.00000 0.00000 -2.00000 -0.00001 0.00001 -8.92001 0.00000 0.00000 79.99999 -0.00000 0.00001 -4.86300 -0.00001 -0.00002 90.00000 -0.00000 0.00001 -2.76499 0.00001 0.00002 70.00000 -0.00001 0.00001 -8.68900 -0.12600 -2.08702 79.99999 -0.00000 0.00001 -4.53800 -0.00001 0.00002 90.00000 -0.00000 0.00001 -2.30499 0.00001 0.00002 70.00000 -0.00001 0.00001 -8.39100 -0.81699 -3.75803 -2.00001 -0.00000 0.00000 -3.04399 0.00001 -0.00002 -2.00000 -0.00000 -0.00000 -1.97501 -0.00001 -0.00002 -2.00000 -0.00001 0.00001 0.00025 0.70787 -0.00018 0.00001 -0.00003 -0.00000 -0.00642 6.37429 0.00510 -13.22497 -11.82691 -174.66760 
-32.07790 9.03443 -240.22130 -90.22919 4.06388 -35.58908 7.36535 1.48116 3.36585 15.30459 -31.67302 -54.36806 -0.00190 -33.42884 0.00674 -123.53581 -11.87755 -2.15280 -0.00076 -29.71478 -0.00539 -12.24476 -53.98068 -15.02128 -5.86770 -0.16580 3.36229 21.01267 -28.54172 -53.74334 0.00715 -33.36786 -0.00558 -64.27193 12.02559 144.52583 -0.00209 -40.62273 -0.00470 2.72046 -10.04597 15.23614 0.00725 29.16799 0.00112 -0.66418 2.07924 -9.86684 -0.00630 21.52317 0.00177 -1.11287 2.21720 -9.93480 0.84636 -0.13726 0.21241 -9.18361 2.31052 -14.00337 8.03789 -0.00018 0.00081 -46.15752 1.40226 -1.18464 24.94079 0.00124 0.00603 -4.66770 -0.86645 -12.08426 23.49976 -0.00805 -0.00457 4.43579 -7.84070 -3.80828 4.87700 -1.04402 3.60799 -38.84870 -18.17666 4.02960 2.66498 0.00002 0.00002 -0.00000 0.00000 5.00000 2.54301 -0.00004 -0.00001 0.00001 0.00000 60.00000 9.23200 -0.30100 2.14399 2.00000 -0.00000 0.00000 4.22501 0.00000 0.00000 1.99999 0.00000 0.00000 2.65400 0.00001 0.00000 2.00000 -0.00000 -0.00000 8.92000 0.00000 -0.00001 -79.99999 -0.00000 0.00000 4.86301 -0.00001 -0.00001 -90.00000 0.00000 0.00000 2.76499 0.00000 0.00000 -70.00000 -0.00000 0.00000 8.68900 -0.12599 -2.08701 -79.99999 -0.00000 0.00000 4.53802 0.00000 0.00000 -90.00000 0.00000 0.00000 2.30501 0.00001 0.00000 -70.00000 -0.00000 0.00000 8.39100 -0.81698 -3.75800 2.00000 -0.00000 0.00000 3.04399 -0.00004 -0.00001 1.99999 0.00000 0.00000 1.97501 0.00001 0.00001 2.00000 -0.00000 -0.00000 -1.77802 -0.33521 0.20960 10.55624 1.27934 6.83661 -16.33381 0.00333 0.00028 68.55443 21.29296 17.67305 -24.52060 -0.00023 0.00104 19.63826 4.30764 23.64812 -25.76448 -0.00151 -0.00329 23.23371 0.62994 -8.27968 -4.87701 -1.04400 3.60801 40.90625 11.75042 -3.91528 -2.66500 0.00000 0.00000 0.00000 0.00000 -5.00000 -2.54300 -0.00001 0.00002 0.00001 0.00000 -60.00000 -9.23200 -0.30100 2.14398 -2.00001 -0.00000 0.00000 -4.22500 -0.00001 -0.00002 -2.00000 -0.00000 -0.00000 -2.65401 0.00000 0.00000 -2.00000 -0.00001 0.00001 -8.92001 0.00000 0.00000 79.99999 -0.00000 0.00001 -4.86300 -0.00001 -0.00002 90.00000 -0.00000 0.00001 -2.76499 0.00001 0.00002 70.00000 -0.00001 0.00001 -8.68900 -0.12600 -2.08702 79.99999 -0.00000 0.00001 -4.53800 -0.00001 0.00002 90.00000 -0.00000 0.00001 -2.30499 0.00001 0.00002 70.00000 -0.00001 0.00001 -8.39100 -0.81699 -3.75803 -2.00001 -0.00000 0.00000 -3.04399 0.00001 -0.00002 -2.00000 -0.00000 -0.00000 -1.97501 -0.00001 -0.00002 -2.00000 -0.00001 0.00001 0.00025 0.70787 -0.00018 0.00001 -0.00003 -0.00000 -0.00642 6.37429 0.00510 -13.20671 -11.79035 -172.90741 
